<svg xmlns="http://www.w3.org/2000/svg" viewBox="0 0 180 180" role="img" aria-labelledby="title">
  <title>Payment QR code</title>
  <rect width="180" height="180" fill="#ffffff"/>
  <rect x="8" y="8" width="164" height="164" fill="#ffffff" stroke="#17212b" stroke-width="4"/>
  <g fill="#17212b">
    <rect x="18" y="18" width="42" height="42"/>
    <rect x="28" y="28" width="22" height="22" fill="#ffffff"/>
    <rect x="120" y="18" width="42" height="42"/>
    <rect x="130" y="28" width="22" height="22" fill="#ffffff"/>
    <rect x="18" y="120" width="42" height="42"/>
    <rect x="28" y="130" width="22" height="22" fill="#ffffff"/>
    <rect x="76" y="20" width="12" height="12"/>
    <rect x="96" y="20" width="12" height="12"/>
    <rect x="76" y="44" width="24" height="12"/>
    <rect x="106" y="68" width="12" height="12"/>
    <rect x="130" y="70" width="32" height="12"/>
    <rect x="70" y="78" width="12" height="12"/>
    <rect x="94" y="86" width="12" height="24"/>
    <rect x="118" y="94" width="12" height="12"/>
    <rect x="146" y="96" width="16" height="16"/>
    <rect x="72" y="120" width="24" height="12"/>
    <rect x="104" y="122" width="12" height="12"/>
    <rect x="128" y="120" width="34" height="12"/>
    <rect x="74" y="144" width="12" height="18"/>
    <rect x="96" y="142" width="28" height="12"/>
    <rect x="136" y="144" width="12" height="18"/>
    <rect x="154" y="150" width="8" height="12"/>
  </g>
</svg>
